<?xml version="1.0" standalone="no"?>
<!DOCTYPE svg PUBLIC "-//W3C//DTD SVG 20010904//EN"
 "http://www.w3.org/TR/2001/REC-SVG-20010904/DTD/svg10.dtd">
<svg version="1.0" xmlns="http://www.w3.org/2000/svg"
 width="1024.000000pt" height="1024.000000pt" viewBox="0 0 1024.000000 1024.000000"
 preserveAspectRatio="xMidYMid meet">
<metadata>
Created by potrace 1.11, written by Peter Selinger 2001-2013
</metadata>
<g transform="translate(0.000000,1024.000000) scale(0.100000,-0.100000)"
fill="#000000" stroke="none">
<path d="M1494 9440 c-71 -32 -134 -104 -154 -176 -11 -39 -11 -62 -1 -128 7
-45 15 -97 18 -116 5 -33 39 -202 49 -245 3 -11 7 -31 10 -45 31 -161 179
-621 258 -805 8 -16 44 -102 81 -190 37 -88 74 -170 81 -182 8 -12 14 -29 14
-38 0 -8 5 -15 10 -15 6 0 10 -6 10 -13 0 -33 206 -408 286 -520 19 -26 34
-52 34 -57 0 -6 5 -10 10 -10 6 0 10 -5 10 -10 0 -8 87 -134 142 -205 58 -74
227 -286 243 -305 277 -312 472 -504 735 -725 52 -44 97 -82 100 -85 3 -3 34
-28 70 -55 36 -27 67 -52 70 -55 12 -13 233 -172 335 -241 127 -85 141 -97
129 -108 -5 -4 -61 -43 -124 -86 -103 -70 -367 -261 -380 -275 -3 -3 -36 -30
-75 -60 -38 -30 -72 -57 -75 -61 -3 -3 -34 -30 -70 -60 -231 -190 -518 -480
-764 -769 -117 -138 -365 -473 -396 -535 -3 -5 -21 -35 -40 -65 -19 -31 -40
-64 -47 -75 -77 -126 -195 -361 -277 -550 -31 -71 -63 -143 -71 -158 -8 -16
-15 -32 -15 -37 0 -4 -8 -25 -17 -46 -9 -22 -18 -43 -19 -49 -2 -5 -17 -44
-34 -85 -30 -72 -129 -358 -135 -391 -2 -10 -17 -66 -34 -127 -34 -123 -63
-249 -92 -397 -30 -159 -34 -186 -34 -257 1 -62 4 -72 40 -125 46 -66 103
-108 166 -122 61 -14 674 -7 719 8 62 20 133 98 145 159 2 10 13 58 24 107 34
143 40 171 47 212 3 21 8 40 11 43 2 3 1196 5 2653 5 l2648 0 13 -55 c7 -30
14 -59 15 -65 1 -5 14 -67 28 -138 29 -145 51 -194 102 -233 59 -45 119 -52
470 -50 313 1 320 1 367 24 57 29 130 109 146 162 6 21 12 60 12 87 1 40 -26
232 -46 333 -2 14 -7 36 -10 50 -2 14 -7 39 -10 55 -12 75 -58 262 -91 372
-14 49 -30 104 -35 123 -40 166 -251 625 -409 890 -18 30 -38 64 -44 75 -6 11
-31 53 -56 93 -25 40 -50 81 -55 90 -37 61 -211 325 -232 352 -7 8 -35 47 -63
85 -80 109 -91 123 -164 214 -71 89 -160 192 -255 296 -86 94 -389 394 -460
455 -35 30 -69 61 -77 68 -11 10 -21 8 -56 -15 -24 -15 -45 -30 -48 -34 -5 -5
-137 -92 -260 -171 -46 -30 -129 -80 -215 -131 -11 -7 -43 -27 -72 -45 -30
-17 -56 -32 -59 -32 -3 0 -18 -8 -32 -18 -15 -11 -67 -40 -117 -67 -49 -26
-105 -56 -123 -67 l-32 -20 39 -26 c38 -26 123 -97 205 -173 l39 -36 -1071 0
c-590 0 -1072 3 -1072 6 0 3 15 16 33 28 18 13 42 31 53 40 141 128 526 396
769 538 181 105 211 122 400 220 50 26 114 60 143 76 28 16 78 43 110 60 64
36 248 139 274 154 55 33 119 71 158 93 25 14 47 29 48 34 2 4 10 8 18 8 8 0
14 5 14 10 0 6 4 10 9 10 5 0 40 20 78 45 37 25 75 50 83 55 29 19 165 114
175 123 6 4 46 34 91 65 45 31 99 71 120 89 21 18 89 71 149 119 61 48 112 90
115 93 3 3 52 46 110 96 58 49 128 110 155 134 86 78 418 413 475 480 30 35
66 76 80 92 38 44 161 201 190 246 8 11 47 68 86 125 69 99 244 375 244 383 0
2 20 38 45 79 49 84 167 315 240 469 52 112 185 424 190 447 2 8 18 52 34 98
26 68 54 161 77 252 27 110 88 421 99 510 4 30 10 78 14 105 18 137 -64 272
-189 309 -57 17 -675 15 -730 -2 -47 -15 -107 -66 -129 -110 -18 -36 -91 -329
-91 -368 0 -10 -5 -26 -10 -34 -8 -13 -315 -15 -2655 -15 l-2646 0 -9 35 c-5
19 -23 98 -40 175 -17 77 -33 147 -35 157 -12 52 -91 148 -128 154 -7 1 -31 7
-55 12 -23 6 -182 10 -355 10 l-313 -1 -60 -27z m5829 -1669 c-45 -82 -167
-267 -253 -386 l-65 -90 -1867 0 c-1026 0 -1869 2 -1871 5 -41 43 -221 309
-304 451 l-51 86 2224 0 2224 0 -37 -66z m-1115 -1306 c-7 -7 -71 -58 -143
-114 -71 -56 -138 -109 -148 -117 -9 -8 -20 -14 -23 -14 -3 0 -11 -6 -18 -12
-7 -7 -25 -22 -40 -33 -16 -11 -47 -34 -70 -51 -22 -17 -72 -51 -111 -76 -38
-24 -109 -70 -156 -100 -47 -31 -112 -71 -145 -89 -32 -18 -61 -35 -64 -38 -3
-4 -19 -13 -35 -22 -17 -8 -50 -27 -75 -42 l-45 -26 -55 36 c-30 19 -68 41
-85 49 -50 24 -113 62 -275 167 -184 119 -327 222 -520 375 -58 46 -115 91
-128 101 -21 17 24 18 1063 18 847 0 1083 -3 1073 -12z m782 -3530 c17 -11
119 -148 195 -260 40 -58 155 -259 155 -269 0 -1 -996 -3 -2213 -3 l-2214 0
59 99 c81 137 119 195 215 328 l83 115 1852 0 c1183 0 1859 -4 1868 -10z"/>
</g>
</svg>
